<svg xmlns="http://www.w3.org/2000/svg" xmlns:xlink="http://www.w3.org/1999/xlink" width="500" zoomAndPan="magnify" viewBox="0 0 375 374.999991" height="500" preserveAspectRatio="xMidYMid meet" version="1.0"><defs><clipPath id="b744410f6d"><path d="M 7.894531 9.347656 L 367.105469 9.347656 L 367.105469 368.554688 L 7.894531 368.554688 Z M 7.894531 9.347656 " clip-rule="nonzero"/></clipPath><clipPath id="f6896441f2"><path d="M 187.5 9.347656 C 88.308594 9.347656 7.894531 89.757812 7.894531 188.953125 C 7.894531 288.144531 88.308594 368.554688 187.5 368.554688 C 286.691406 368.554688 367.105469 288.144531 367.105469 188.953125 C 367.105469 89.757812 286.691406 9.347656 187.5 9.347656 Z M 187.5 9.347656 " clip-rule="nonzero"/></clipPath><clipPath id="26fce68009"><path d="M 103 75.226562 L 257 75.226562 L 257 302.476562 L 103 302.476562 Z M 103 75.226562 " clip-rule="nonzero"/></clipPath></defs><g clip-path="url(#b744410f6d)"><g clip-path="url(#f6896441f2)"><path fill="#1c38f6" d="M 7.894531 9.347656 L 367.105469 9.347656 L 367.105469 368.554688 L 7.894531 368.554688 Z M 7.894531 9.347656 " fill-opacity="1" fill-rule="nonzero"/></g></g><g clip-path="url(#26fce68009)"><path fill="#ffffff" d="M 121.828125 222.578125 L 114.066406 212.710938 C 94.449219 187.753906 102.8125 151.066406 131.304688 137.070312 L 256.957031 75.339844 L 256.957031 100.75 C 256.957031 120.1875 245.855469 137.921875 228.386719 146.4375 L 144.851562 187.144531 C 138.773438 190.105469 133.445312 194.445312 129.425781 199.886719 C 125.390625 205.347656 121.917969 212.839844 122.1875 222.292969 C 124.941406 220.105469 127.988281 218.171875 131.300781 216.546875 L 256.949219 154.820312 L 256.949219 180.230469 C 256.949219 199.664062 245.851562 217.398438 228.378906 225.914062 L 144.851562 266.617188 C 138.773438 269.578125 133.445312 273.917969 129.425781 279.359375 C 125.277344 284.976562 121.726562 292.726562 122.21875 302.550781 L 114.066406 292.1875 C 96.828125 270.257812 101.1875 239.269531 121.828125 222.578125 Z M 203.445312 274.714844 L 256.914062 302.574219 L 256.894531 232.984375 L 203.546875 259.839844 C 197.464844 262.90625 197.40625 271.570312 203.445312 274.714844 Z M 203.445312 274.714844 " fill-opacity="1" fill-rule="nonzero"/></g></svg>