<svg xmlns="http://www.w3.org/2000/svg" xmlns:xlink="http://www.w3.org/1999/xlink" width="1600" zoomAndPan="magnify" viewBox="0 0 1200 374.999991" height="500" preserveAspectRatio="xMidYMid meet" version="1.0"><defs><g/><clipPath id="7ebad31e79"><path d="M 60.363281 125.414062 L 162.363281 125.414062 L 162.363281 265.664062 L 60.363281 265.664062 Z M 60.363281 125.414062 " clip-rule="nonzero"/></clipPath></defs><rect x="-120" width="1440" fill="#ffffff" y="-37.499999" height="449.999989" fill-opacity="1"/><rect x="-120" width="1440" fill="#ffffff" y="-37.499999" height="449.999989" fill-opacity="1"/><g clip-path="url(#7ebad31e79)"><path fill="#1c38f6" d="M 162.070312 167.558594 L 162.070312 197.027344 L 120.550781 197.027344 C 119.542969 197.03125 118.542969 197.128906 117.554688 197.328125 C 116.566406 197.523438 115.605469 197.816406 114.675781 198.203125 C 113.746094 198.589844 112.859375 199.0625 112.023438 199.621094 C 111.183594 200.183594 110.410156 200.820312 109.695312 201.53125 C 108.984375 202.242188 108.347656 203.019531 107.785156 203.855469 C 107.226562 204.695312 106.753906 205.578125 106.367188 206.511719 C 105.980469 207.441406 105.6875 208.402344 105.492188 209.390625 C 105.292969 210.378906 105.195312 211.375 105.191406 212.382812 L 105.191406 220.882812 C 105.191406 245.605469 85.089844 265.710938 60.363281 265.710938 C 71.523438 254.554688 75.71875 242.195312 75.71875 220.886719 L 75.71875 212.386719 C 75.71875 187.671875 95.820312 167.558594 120.550781 167.558594 Z M 132.070312 125.484375 C 94.710938 128.503906 76.386719 153.121094 76.386719 177.007812 L 76.359375 177.152344 C 87.597656 163.601562 104.546875 154.953125 123.476562 154.953125 L 162.070312 154.953125 L 162.070312 125.484375 Z M 132.070312 125.484375 " fill-opacity="1" fill-rule="nonzero"/></g><g fill="#191919" fill-opacity="1"><g transform="translate(217.083871, 235.948374)"><g><path d="M 33.421875 0 L 12.578125 0 L 12.578125 -99.9375 L 69.859375 -99.9375 L 69.859375 -82.5625 L 33.421875 -82.5625 L 33.421875 -56.796875 L 67.328125 -56.796875 L 67.328125 -39.5 L 33.421875 -39.5 Z M 33.421875 0 "/></g></g></g><g fill="#191919" fill-opacity="1"><g transform="translate(299.086596, 235.948374)"><g><path d="M 42.234375 -77.984375 C 52.492188 -77.984375 60.359375 -75.75 65.828125 -71.28125 C 71.296875 -66.820312 74.03125 -60.035156 74.03125 -50.921875 L 74.03125 0 L 59.46875 0 L 55.4375 -10.390625 L 54.890625 -10.390625 C 52.703125 -7.648438 50.46875 -5.414062 48.1875 -3.6875 C 45.90625 -1.957031 43.285156 -0.6875 40.328125 0.125 C 37.367188 0.945312 33.769531 1.359375 29.53125 1.359375 C 25.019531 1.359375 20.972656 0.492188 17.390625 -1.234375 C 13.816406 -2.960938 11.003906 -5.613281 8.953125 -9.1875 C 6.898438 -12.769531 5.875 -17.316406 5.875 -22.828125 C 5.875 -30.941406 8.722656 -36.921875 14.421875 -40.765625 C 20.117188 -44.617188 28.660156 -46.75 40.046875 -47.15625 L 53.3125 -47.578125 L 53.3125 -50.921875 C 53.3125 -54.929688 52.265625 -57.867188 50.171875 -59.734375 C 48.078125 -61.609375 45.160156 -62.546875 41.421875 -62.546875 C 37.734375 -62.546875 34.109375 -62.019531 30.546875 -60.96875 C 26.992188 -59.914062 23.441406 -58.59375 19.890625 -57 L 12.984375 -71.078125 C 17.035156 -73.222656 21.578125 -74.910156 26.609375 -76.140625 C 31.648438 -77.367188 36.859375 -77.984375 42.234375 -77.984375 Z M 53.3125 -35.40625 L 45.25 -35.125 C 38.5 -34.945312 33.8125 -33.738281 31.1875 -31.5 C 28.570312 -29.269531 27.265625 -26.332031 27.265625 -22.6875 C 27.265625 -19.5 28.195312 -17.234375 30.0625 -15.890625 C 31.9375 -14.546875 34.378906 -13.875 37.390625 -13.875 C 41.859375 -13.875 45.628906 -15.191406 48.703125 -17.828125 C 51.773438 -20.472656 53.3125 -24.238281 53.3125 -29.125 Z M 53.3125 -35.40625 "/></g></g></g><g fill="#191919" fill-opacity="1"><g transform="translate(388.812631, 235.948374)"><g><path d="M 41.96875 1.359375 C 34.40625 1.359375 27.957031 -0.015625 22.625 -2.765625 C 17.289062 -5.523438 13.234375 -9.796875 10.453125 -15.578125 C 7.671875 -21.367188 6.28125 -28.773438 6.28125 -37.796875 C 6.28125 -47.140625 7.863281 -54.757812 11.03125 -60.65625 C 14.207031 -66.5625 18.609375 -70.90625 24.234375 -73.6875 C 29.859375 -76.46875 36.382812 -77.859375 43.8125 -77.859375 C 49.101562 -77.859375 53.671875 -77.34375 57.515625 -76.3125 C 61.367188 -75.289062 64.726562 -74.070312 67.59375 -72.65625 L 61.453125 -56.53125 C 58.171875 -57.851562 55.113281 -58.929688 52.28125 -59.765625 C 49.457031 -60.609375 46.632812 -61.03125 43.8125 -61.03125 C 40.164062 -61.03125 37.132812 -60.175781 34.71875 -58.46875 C 32.300781 -56.757812 30.5 -54.195312 29.3125 -50.78125 C 28.132812 -47.363281 27.546875 -43.082031 27.546875 -37.9375 C 27.546875 -32.875 28.179688 -28.679688 29.453125 -25.359375 C 30.734375 -22.035156 32.582031 -19.5625 35 -17.9375 C 37.414062 -16.320312 40.351562 -15.515625 43.8125 -15.515625 C 48.144531 -15.515625 51.992188 -16.09375 55.359375 -17.25 C 58.734375 -18.414062 62.015625 -20.046875 65.203125 -22.140625 L 65.203125 -4.3125 C 62.015625 -2.300781 58.675781 -0.851562 55.1875 0.03125 C 51.707031 0.914062 47.300781 1.359375 41.96875 1.359375 Z M 41.96875 1.359375 "/></g></g></g><g fill="#191919" fill-opacity="1"><g transform="translate(465.962656, 235.948374)"><g><path d="M 43.125 -15.25 C 45.40625 -15.25 47.628906 -15.472656 49.796875 -15.921875 C 51.960938 -16.378906 54.113281 -16.953125 56.25 -17.640625 L 56.25 -2.125 C 54.019531 -1.113281 51.253906 -0.28125 47.953125 0.375 C 44.648438 1.03125 41.035156 1.359375 37.109375 1.359375 C 32.554688 1.359375 28.46875 0.617188 24.84375 -0.859375 C 21.21875 -2.335938 18.367188 -4.910156 16.296875 -8.578125 C 14.222656 -12.242188 13.1875 -17.359375 13.1875 -23.921875 L 13.1875 -60.765625 L 3.21875 -60.765625 L 3.21875 -69.578125 L 14.703125 -76.546875 L 20.703125 -92.6875 L 34.046875 -92.6875 L 34.046875 -76.421875 L 55.4375 -76.421875 L 55.4375 -60.765625 L 34.046875 -60.765625 L 34.046875 -23.921875 C 34.046875 -21.003906 34.875 -18.828125 36.53125 -17.390625 C 38.195312 -15.960938 40.394531 -15.25 43.125 -15.25 Z M 43.125 -15.25 "/></g></g></g><g fill="#191919" fill-opacity="1"><g transform="translate(531.903628, 235.948374)"><g><path d="M 42.453125 -77.859375 C 49.515625 -77.859375 55.597656 -76.5 60.703125 -73.78125 C 65.804688 -71.070312 69.742188 -67.140625 72.515625 -61.984375 C 75.296875 -56.835938 76.6875 -50.550781 76.6875 -43.125 L 76.6875 -33.015625 L 27.40625 -33.015625 C 27.632812 -27.140625 29.398438 -22.523438 32.703125 -19.171875 C 36.003906 -15.828125 40.597656 -14.15625 46.484375 -14.15625 C 51.359375 -14.15625 55.820312 -14.65625 59.875 -15.65625 C 63.925781 -16.65625 68.097656 -18.15625 72.390625 -20.15625 L 72.390625 -4.03125 C 68.609375 -2.164062 64.65625 -0.800781 60.53125 0.0625 C 56.40625 0.925781 51.398438 1.359375 45.515625 1.359375 C 37.867188 1.359375 31.09375 -0.0507812 25.1875 -2.875 C 19.289062 -5.695312 14.664062 -10 11.3125 -15.78125 C 7.957031 -21.570312 6.28125 -28.863281 6.28125 -37.65625 C 6.28125 -46.59375 7.796875 -54.035156 10.828125 -59.984375 C 13.859375 -65.929688 18.082031 -70.394531 23.5 -73.375 C 28.925781 -76.363281 35.242188 -77.859375 42.453125 -77.859375 Z M 42.578125 -63.015625 C 38.523438 -63.015625 35.164062 -61.71875 32.5 -59.125 C 29.832031 -56.53125 28.296875 -52.453125 27.890625 -46.890625 L 57.140625 -46.890625 C 57.097656 -49.984375 56.539062 -52.738281 55.46875 -55.15625 C 54.394531 -57.570312 52.796875 -59.484375 50.671875 -60.890625 C 48.554688 -62.304688 45.859375 -63.015625 42.578125 -63.015625 Z M 42.578125 -63.015625 "/></g></g></g><g fill="#191919" fill-opacity="1"><g transform="translate(619.78425, 235.948374)"><g><path d="M 53.59375 -77.859375 C 54.632812 -77.859375 55.847656 -77.800781 57.234375 -77.6875 C 58.628906 -77.570312 59.757812 -77.421875 60.625 -77.234375 L 59.0625 -57.6875 C 58.375 -57.914062 57.398438 -58.085938 56.140625 -58.203125 C 54.890625 -58.316406 53.8125 -58.375 52.90625 -58.375 C 50.21875 -58.375 47.609375 -58.03125 45.078125 -57.34375 C 42.546875 -56.664062 40.273438 -55.5625 38.265625 -54.03125 C 36.265625 -52.507812 34.679688 -50.503906 33.515625 -48.015625 C 32.359375 -45.535156 31.78125 -42.492188 31.78125 -38.890625 L 31.78125 0 L 10.9375 0 L 10.9375 -76.421875 L 26.71875 -76.421875 L 29.796875 -63.5625 L 30.828125 -63.5625 C 32.328125 -66.164062 34.203125 -68.546875 36.453125 -70.703125 C 38.710938 -72.867188 41.289062 -74.601562 44.1875 -75.90625 C 47.082031 -77.207031 50.21875 -77.859375 53.59375 -77.859375 Z M 53.59375 -77.859375 "/></g></g></g><g fill="#525252" fill-opacity="1"><g transform="translate(729.471701, 234.974957)"><g><path d="M 47.78125 0 L 31.3125 0 L 31.3125 -85.984375 L 2.046875 -85.984375 L 2.046875 -99.9375 L 76.96875 -99.9375 L 76.96875 -85.984375 L 47.78125 -85.984375 Z M 47.78125 0 "/></g></g></g><g fill="#525252" fill-opacity="1"><g transform="translate(813.735993, 234.974957)"><g><path d="M 49.828125 -77.09375 C 51.109375 -77.09375 52.5 -77.023438 54 -76.890625 C 55.5 -76.753906 56.796875 -76.570312 57.890625 -76.34375 L 56.390625 -61.3125 C 55.429688 -61.582031 54.253906 -61.785156 52.859375 -61.921875 C 51.472656 -62.054688 50.234375 -62.125 49.140625 -62.125 C 46.273438 -62.125 43.539062 -61.65625 40.9375 -60.71875 C 38.34375 -59.789062 36.039062 -58.378906 34.03125 -56.484375 C 32.03125 -54.597656 30.457031 -52.242188 29.3125 -49.421875 C 28.175781 -46.597656 27.609375 -43.316406 27.609375 -39.578125 L 27.609375 0 L 11.484375 0 L 11.484375 -75.671875 L 24.0625 -75.671875 L 26.25 -62.34375 L 27 -62.34375 C 28.5 -65.03125 30.363281 -67.488281 32.59375 -69.71875 C 34.832031 -71.945312 37.398438 -73.734375 40.296875 -75.078125 C 43.191406 -76.421875 46.367188 -77.09375 49.828125 -77.09375 Z M 49.828125 -77.09375 "/></g></g></g><g fill="#525252" fill-opacity="1"><g transform="translate(879.339868, 234.974957)"><g><path d="M 77.4375 -75.671875 L 77.4375 0 L 64.796875 0 L 62.609375 -10.1875 L 61.71875 -10.1875 C 60.125 -7.582031 58.097656 -5.425781 55.640625 -3.71875 C 53.179688 -2.007812 50.445312 -0.738281 47.4375 0.09375 C 44.425781 0.9375 41.257812 1.359375 37.9375 1.359375 C 32.238281 1.359375 27.375 0.394531 23.34375 -1.53125 C 19.3125 -3.46875 16.222656 -6.460938 14.078125 -10.515625 C 11.941406 -14.578125 10.875 -19.820312 10.875 -26.25 L 10.875 -75.671875 L 27 -75.671875 L 27 -29.25 C 27 -23.375 28.191406 -18.976562 30.578125 -16.0625 C 32.972656 -13.144531 36.703125 -11.6875 41.765625 -11.6875 C 46.640625 -11.6875 50.507812 -12.6875 53.375 -14.6875 C 56.25 -16.695312 58.289062 -19.660156 59.5 -23.578125 C 60.707031 -27.492188 61.3125 -32.300781 61.3125 -38 L 61.3125 -75.671875 Z M 77.4375 -75.671875 "/></g></g></g><g fill="#525252" fill-opacity="1"><g transform="translate(973.447021, 234.974957)"><g><path d="M 41.96875 1.359375 C 34.8125 1.359375 28.613281 -0.0234375 23.375 -2.796875 C 18.132812 -5.578125 14.101562 -9.835938 11.28125 -15.578125 C 8.457031 -21.328125 7.046875 -28.617188 7.046875 -37.453125 C 7.046875 -46.660156 8.59375 -54.179688 11.6875 -60.015625 C 14.789062 -65.847656 19.085938 -70.148438 24.578125 -72.921875 C 30.066406 -75.703125 36.363281 -77.09375 43.46875 -77.09375 C 47.976562 -77.09375 52.066406 -76.648438 55.734375 -75.765625 C 59.410156 -74.878906 62.523438 -73.796875 65.078125 -72.515625 L 60.28125 -59.671875 C 57.5 -60.804688 54.648438 -61.757812 51.734375 -62.53125 C 48.828125 -63.3125 46.023438 -63.703125 43.328125 -63.703125 C 38.910156 -63.703125 35.234375 -62.722656 32.296875 -60.765625 C 29.359375 -58.804688 27.171875 -55.890625 25.734375 -52.015625 C 24.296875 -48.140625 23.578125 -43.332031 23.578125 -37.59375 C 23.578125 -32.03125 24.304688 -27.347656 25.765625 -23.546875 C 27.222656 -19.742188 29.382812 -16.875 32.25 -14.9375 C 35.125 -13 38.660156 -12.03125 42.859375 -12.03125 C 47.003906 -12.03125 50.71875 -12.53125 54 -13.53125 C 57.28125 -14.53125 60.378906 -15.832031 63.296875 -17.4375 L 63.296875 -3.484375 C 60.421875 -1.847656 57.34375 -0.632812 54.0625 0.15625 C 50.78125 0.957031 46.75 1.359375 41.96875 1.359375 Z M 41.96875 1.359375 "/></g></g></g><g fill="#525252" fill-opacity="1"><g transform="translate(1048.141865, 234.974957)"><g><path d="M 27.546875 -106.359375 L 27.546875 -54.953125 C 27.546875 -52.628906 27.453125 -50.085938 27.265625 -47.328125 C 27.085938 -44.578125 26.90625 -41.992188 26.71875 -39.578125 L 27.0625 -39.578125 C 28.25 -41.171875 29.671875 -43.035156 31.328125 -45.171875 C 32.992188 -47.316406 34.582031 -49.1875 36.09375 -50.78125 L 59.1875 -75.671875 L 77.640625 -75.671875 L 47.375 -43.125 L 79.625 0 L 60.765625 0 L 36.5625 -33.21875 L 27.546875 -25.5 L 27.546875 0 L 11.484375 0 L 11.484375 -106.359375 Z M 27.546875 -106.359375 "/></g></g></g></svg>