<svg xmlns="http://www.w3.org/2000/svg" xmlns:xlink="http://www.w3.org/1999/xlink" width="500" zoomAndPan="magnify" viewBox="0 0 375 374.999991" height="500" preserveAspectRatio="xMidYMid meet" version="1.0"><defs><clipPath id="c33f4d4a9f"><path d="M 57 3.527344 L 304.953125 3.527344 L 304.953125 369.527344 L 57 369.527344 Z M 57 3.527344 " clip-rule="nonzero"/></clipPath></defs><rect x="-37.5" width="450" fill="#ffffff" y="-37.499999" height="449.999989" fill-opacity="1"/><rect x="-37.5" width="450" fill="#ffffff" y="-37.499999" height="449.999989" fill-opacity="1"/><g clip-path="url(#c33f4d4a9f)"><path fill="#ffffff" d="M 87.269531 240.550781 L 74.785156 224.671875 C 43.226562 184.53125 56.679688 125.511719 102.507812 103 L 304.632812 3.703125 L 304.632812 44.578125 C 304.632812 75.84375 286.777344 104.371094 258.671875 118.066406 L 124.304688 183.546875 C 114.523438 188.3125 105.957031 195.296875 99.488281 204.046875 C 92.996094 212.832031 87.410156 224.886719 87.84375 240.089844 C 92.273438 236.574219 97.175781 233.460938 102.5 230.847656 L 304.625 131.550781 L 304.625 172.425781 C 304.625 203.691406 286.769531 232.21875 258.664062 245.914062 L 124.304688 311.386719 C 114.523438 316.152344 105.957031 323.136719 99.488281 331.886719 C 92.8125 340.921875 87.101562 353.390625 87.898438 369.195312 L 74.785156 352.519531 C 47.050781 317.242188 54.066406 267.398438 87.269531 240.550781 Z M 218.554688 324.417969 L 304.5625 369.230469 L 304.535156 257.285156 L 218.722656 300.488281 C 208.933594 305.417969 208.84375 319.355469 218.554688 324.417969 Z M 218.554688 324.417969 " fill-opacity="1" fill-rule="nonzero"/></g></svg>